<svg width="16" height="16" viewBox="0 0 16 16" fill="none" xmlns="http://www.w3.org/2000/svg">
<path fill-rule="evenodd" clip-rule="evenodd" d="M9.89287 0H14.6072C15.4272 0 16 0.514031 16 1.25V3C16 3.77103 15.5211 4.25 14.75 4.25H13.304L11.7004 6.3995C11.6676 6.44349 11.6212 6.47546 11.5684 6.49047C11.5156 6.50548 11.4593 6.50269 11.4083 6.48255C11.3572 6.4624 11.3142 6.42602 11.2859 6.379C11.2576 6.33199 11.2455 6.27696 11.2516 6.22241L11.4707 4.25H9.75003C8.979 4.25 8.50003 3.77103 8.50003 3V1.25C8.50003 0.514031 9.07281 0 9.89287 0ZM14.75 3.75C15.2407 3.75 15.5 3.49062 15.5 3V1.25C15.5 0.731906 15.0516 0.5 14.6072 0.5H9.89287C9.44847 0.5 9.00003 0.731906 9.00003 1.25V3C9.00003 3.49062 9.25941 3.75 9.75003 3.75H11.75C11.7852 3.75002 11.8199 3.75745 11.852 3.7718C11.8841 3.78615 11.9128 3.8071 11.9362 3.83329C11.9596 3.85948 11.9773 3.89031 11.988 3.92378C11.9987 3.95725 12.0022 3.9926 11.9984 4.02753L11.85 5.3625L12.9782 3.8505C13.0015 3.81931 13.0317 3.79398 13.0665 3.77653C13.1013 3.75909 13.1397 3.75 13.1786 3.75H14.75ZM9.89284 0.25H14.6072C15.2383 0.25 15.75 0.618749 15.75 1.25V3C15.75 3.63125 15.3813 4 14.75 4H13.1786L11.5 6.25L11.75 4H9.75C9.11875 4 8.75 3.63125 8.75 3V1.25C8.75 0.618749 9.26169 0.25 9.89284 0.25ZM0.953448 10L1.75 14.8125H1.74997L0.95341 10H0.953448ZM1.7155 5.5L1.4793 5.25H0.875C0.529812 5.25 0.25 5.40481 0.25 5.75L0.953448 10H2.74999L2.45689 8.82766C2.43234 8.72945 2.43049 8.62694 2.45149 8.52792C2.47249 8.42889 2.51578 8.33596 2.57808 8.25617C2.64037 8.17638 2.72004 8.11184 2.81101 8.06746C2.90199 8.02307 3.00188 8 3.10311 8H3.72992C3.87848 8 4.02277 8.04966 4.13986 8.14108C4.25695 8.2325 4.34012 8.36044 4.37614 8.50456L4.74999 10H5.9672L6.20801 10.2549L7.0206 14.5H5.49998L5.12614 13.0046C5.09011 12.8604 5.00694 12.7325 4.88985 12.6411C4.77276 12.5497 4.62847 12.5 4.47992 12.5H3.8531C3.75188 12.5 3.65198 12.5231 3.561 12.5675C3.47003 12.6118 3.39037 12.6764 3.32807 12.7562C3.26577 12.836 3.22248 12.9289 3.20148 13.0279C3.18048 13.1269 3.18233 13.2295 3.20688 13.3277L3.49998 14.5H2.0625C1.97962 14.5 1.90013 14.5329 1.84153 14.5915C1.78292 14.6501 1.75 14.7296 1.75 14.8125V15.4375C1.75 15.5204 1.78292 15.5999 1.84153 15.6585C1.90013 15.7171 1.97962 15.75 2.0625 15.75H8.5V14.5H8.50003V15.75H15.4375C15.5204 15.75 15.5999 15.7171 15.6585 15.6585C15.7171 15.5999 15.75 15.5204 15.75 15.4375V14.8125C15.75 14.7296 15.7171 14.6501 15.6585 14.5915C15.5999 14.5329 15.5204 14.5 15.4375 14.5H13.2813C13.2067 14.5 13.1352 14.5296 13.0824 14.5824C13.0297 14.6351 13 14.7067 13 14.7812C13 14.8393 12.977 14.8949 12.936 14.9359C12.8949 14.977 12.8393 15 12.7813 15H11.7188C11.6608 15 11.6051 14.977 11.5641 14.9359C11.5231 14.8949 11.5 14.8393 11.5 14.7812C11.5 14.7067 11.4704 14.6351 11.4177 14.5824C11.3688 14.5335 11.3039 14.5045 11.2353 14.5005L11.25 14.5L11.25 14.5L10.4786 10H10.4786L9.74999 5.75C9.74999 5.40481 9.47017 5.25 9.12499 5.25H5.25L6.15938 10H6.15927L6.20806 10.2549L6.20801 10.2549L6.15922 10H5.9672L5.73099 9.75H5.84688L5.04287 5.5H1.7155ZM2.43285 6.25924L1.7155 5.5H0.875C0.635125 5.5 0.509375 5.57812 0.5005 5.73241L1.16547 9.75H2.42981L2.21438 8.88828C2.18061 8.75322 2.17807 8.61224 2.20695 8.47605C2.23583 8.33986 2.29537 8.21205 2.38105 8.10232C2.46672 7.99258 2.57628 7.90382 2.7014 7.84277C2.82652 7.78173 2.96391 7.75 3.10313 7.75H3.72991C3.76974 7.74995 3.80935 7.7525 3.84851 7.75757L4.66254 8.61915L4.94519 9.75H5.73099L4.66254 8.61915L4.61875 8.44394C4.56941 8.2456 4.45507 8.0695 4.29397 7.94373C4.16427 7.84246 4.01027 7.77852 3.84851 7.75757L3.45781 7.34406C3.56144 7.2642 3.64262 7.15842 3.69291 7.037C3.74968 6.89996 3.76453 6.74916 3.73559 6.60367C3.70665 6.45819 3.63522 6.32455 3.53033 6.21966C3.42544 6.11477 3.2918 6.04334 3.14632 6.0144C3.00083 5.98547 2.85003 6.00032 2.71299 6.05708C2.60476 6.10191 2.50895 6.17129 2.43285 6.25924ZM2.60584 6.44233L2.43285 6.25924C2.41259 6.28265 2.39373 6.30738 2.3764 6.33332C2.29399 6.45665 2.25 6.60166 2.25 6.74999C2.25022 6.94884 2.32931 7.13947 2.46992 7.28008C2.61052 7.42068 2.80116 7.49977 3 7.49999C3.14834 7.49999 3.29334 7.45601 3.41668 7.37359C3.43075 7.36419 3.44446 7.35434 3.45781 7.34406L3.28484 7.16099C3.41487 7.0707 3.5 6.92029 3.5 6.75C3.5 6.47386 3.27614 6.25 3 6.25C2.83989 6.25 2.69735 6.32526 2.60584 6.44233ZM2.78166 6.62842L2.60584 6.44233C2.53952 6.52717 2.5 6.63397 2.5 6.75C2.5 7.02614 2.72386 7.25 3 7.25C3.10585 7.25 3.20402 7.21711 3.28484 7.16099L3.10907 6.97495C3.13403 6.96284 3.15695 6.9466 3.17678 6.92677C3.21174 6.89181 3.23555 6.84726 3.2452 6.79877C3.25484 6.75027 3.24989 6.7 3.23097 6.65432C3.21205 6.60864 3.18 6.5696 3.13889 6.54213C3.09778 6.51465 3.04945 6.49999 3 6.49999C2.93372 6.50007 2.87017 6.52643 2.82331 6.5733C2.8068 6.58981 2.79283 6.60839 2.78166 6.62842ZM2.78166 6.62842L3.10907 6.97495C3.09001 6.98419 3.06976 6.99101 3.04877 6.99519C3.00028 7.00484 2.95001 6.99988 2.90433 6.98096C2.85865 6.96204 2.8196 6.93 2.79213 6.88889C2.76466 6.84777 2.75 6.79944 2.75 6.74999C2.75005 6.70706 2.76113 6.66527 2.78166 6.62842ZM6.51221 10.5768L6.20806 10.2549L7.02065 14.5H7.0206L7.04707 14.6383L7.04711 14.6382L7.02065 14.5H8.25L7.95691 13.3277C7.93235 13.2295 7.93051 13.1269 7.95151 13.0279C7.9725 12.9289 8.0158 12.836 8.07809 12.7562C8.14039 12.6764 8.22005 12.6118 8.31103 12.5675C8.33008 12.5582 8.34953 12.5498 8.3693 12.5424L8.56695 12.7516C8.51621 12.756 8.46661 12.7697 8.42066 12.7921C8.36383 12.8199 8.31407 12.8602 8.27515 12.91C8.23624 12.9599 8.20919 13.0179 8.19607 13.0798C8.18295 13.1416 8.1841 13.2057 8.19944 13.267L8.44519 14.25H9.92981L9.91079 14.1739L10.25 14.5329L11.2353 14.5005C11.2298 14.5002 11.2243 14.5 11.2188 14.5H10.25L9.87616 13.0046C9.84013 12.8604 9.75696 12.7325 9.63987 12.6411C9.52278 12.5497 9.37849 12.5 9.22994 12.5H8.60313C8.5231 12.5 8.44391 12.5144 8.3693 12.5424L8.18733 12.3498L8.2014 12.3428C8.32652 12.2817 8.46391 12.25 8.60312 12.25H9.22991C9.43429 12.2498 9.63287 12.318 9.79397 12.4437C9.95507 12.5695 10.0694 12.7456 10.1187 12.9439L10.4452 14.25H10.9535L10.2678 10.25H6.45038L6.51221 10.5768ZM6.51221 10.5768L7.20713 14.25H7.92981L7.71438 13.3883C7.68061 13.2532 7.67807 13.1122 7.70695 12.9761C7.73583 12.8399 7.79537 12.712 7.88105 12.6023C7.9635 12.4967 8.06807 12.4105 8.18733 12.3498L6.51221 10.5768ZM9.91079 14.1739L9.63359 13.0652C9.61116 12.9751 9.55923 12.8952 9.48608 12.838C9.41292 12.7809 9.32275 12.7499 9.22994 12.75H8.60312C8.59102 12.75 8.57895 12.7505 8.56695 12.7516L9.91079 14.1739ZM9.5 10L9.12616 8.50456C9.09013 8.36044 9.00696 8.2325 8.88987 8.14108C8.77278 8.04966 8.62849 8 8.47994 8H7.85313C7.7519 8 7.652 8.02307 7.56103 8.06746C7.47005 8.11184 7.39039 8.17638 7.32809 8.25617C7.2658 8.33596 7.2225 8.42889 7.20151 8.52792C7.18051 8.62694 7.18235 8.72945 7.20691 8.82766L7.5 10H9.5ZM7.75 7.25C8.02614 7.25 8.25 7.02614 8.25 6.75C8.25 6.47386 8.02614 6.25 7.75 6.25C7.47386 6.25 7.25 6.47386 7.25 6.75C7.25 7.02614 7.47386 7.25 7.75 7.25ZM3.75001 11.75C4.02615 11.75 4.25 11.5261 4.25 11.25C4.25 10.9739 4.02615 10.75 3.75001 10.75C3.47386 10.75 3.25001 10.9739 3.25001 11.25C3.25001 11.5261 3.47386 11.75 3.75001 11.75ZM8.5 11.75C8.77614 11.75 9 11.5261 9 11.25C9 10.9739 8.77614 10.75 8.5 10.75C8.22386 10.75 8 10.9739 8 11.25C8 11.5261 8.22386 11.75 8.5 11.75ZM10.75 1.99999C10.75 2.27613 10.5262 2.49999 10.25 2.49999C9.97389 2.49999 9.75003 2.27613 9.75003 1.99999C9.75003 1.72385 9.97389 1.49999 10.25 1.49999C10.5262 1.49999 10.75 1.72385 10.75 1.99999ZM12.25 2.49999C12.5262 2.49999 12.75 2.27613 12.75 1.99999C12.75 1.72385 12.5262 1.49999 12.25 1.49999C11.9739 1.49999 11.75 1.72385 11.75 1.99999C11.75 2.27613 11.9739 2.49999 12.25 2.49999ZM14.75 1.99999C14.75 2.27613 14.5261 2.49999 14.25 2.49999C13.9739 2.49999 13.75 2.27613 13.75 1.99999C13.75 1.72385 13.9739 1.49999 14.25 1.49999C14.5261 1.49999 14.75 1.72385 14.75 1.99999ZM15.4375 14.25H13.2812C13.1458 14.2502 13.0155 14.302 12.917 14.3949C12.8184 14.4878 12.759 14.6148 12.7509 14.75H11.7491C11.7436 14.6599 11.7153 14.5726 11.6668 14.4965C11.6183 14.4203 11.5512 14.3577 11.4719 14.3147L9.99972 5.727C9.98831 5.28438 9.64756 5 9.125 5H0.875C0.343469 5 0 5.29437 0 5.75V5.77056L1.5 14.8331V15.4375C1.50017 15.5866 1.55948 15.7296 1.66494 15.8351C1.77039 15.9405 1.91337 15.9998 2.0625 16H15.4375C15.5866 15.9998 15.7296 15.9405 15.8351 15.8351C15.9405 15.7296 15.9998 15.5866 16 15.4375V14.8125C15.9998 14.6634 15.9405 14.5204 15.8351 14.4149C15.7296 14.3095 15.5866 14.2502 15.4375 14.25ZM3.44944 13.267C3.4341 13.2057 3.43295 13.1416 3.44607 13.0798C3.45919 13.0179 3.48624 12.9599 3.52515 12.91C3.56407 12.8602 3.61383 12.8199 3.67066 12.7921C3.72749 12.7644 3.78989 12.75 3.85313 12.75H4.47994C4.57275 12.7499 4.66292 12.7809 4.73608 12.838C4.80923 12.8952 4.86116 12.9751 4.88359 13.0652L5.17981 14.25H3.69519L3.44944 13.267ZM5.69519 14.25L5.36875 12.9439C5.31941 12.7456 5.20507 12.5695 5.04397 12.4437C4.88287 12.318 4.68429 12.2498 4.47991 12.25H3.85313C3.71391 12.25 3.57652 12.2817 3.4514 12.3428C3.32628 12.4038 3.21672 12.4926 3.13105 12.6023C3.04537 12.712 2.98583 12.8399 2.95695 12.9761C2.92807 13.1122 2.93061 13.2532 2.96438 13.3883L3.17981 14.25H2.0625C2.01221 14.2502 1.96216 14.2571 1.91372 14.2706L1.24822 10.25H5.94153L6.69828 14.25H5.69519ZM2.69944 8.767C2.6841 8.70566 2.68295 8.64162 2.69607 8.57976C2.70919 8.51791 2.73624 8.45985 2.77515 8.41001C2.81407 8.36018 2.86383 8.31986 2.92066 8.29213C2.97749 8.26441 3.03989 8.25 3.10313 8.25H3.72994C3.82275 8.24992 3.91292 8.28091 3.98608 8.33804C4.05923 8.39516 4.11116 8.47512 4.13359 8.56519L4.42981 9.75H2.94519L2.69944 8.767ZM7.44944 8.767C7.4341 8.70566 7.43295 8.64162 7.44607 8.57976C7.45919 8.51791 7.48624 8.45985 7.52515 8.41001C7.56407 8.36018 7.61383 8.31986 7.67066 8.29213C7.72749 8.26441 7.78989 8.25 7.85313 8.25H8.47994C8.57275 8.24992 8.66292 8.28091 8.73608 8.33804C8.80923 8.39516 8.86116 8.47512 8.88359 8.56519L9.17981 9.75H7.69519L7.44944 8.767ZM9.5 5.75V5.77128L10.1821 9.75H9.69519L9.36875 8.44394C9.31941 8.2456 9.20507 8.0695 9.04397 7.94373C8.88287 7.81795 8.68429 7.74975 8.47991 7.75H7.85313C7.71391 7.75 7.57652 7.78173 7.4514 7.84277C7.32628 7.90382 7.21672 7.99258 7.13105 8.10232C7.04537 8.21205 6.98583 8.33986 6.95695 8.47605C6.92807 8.61224 6.93061 8.75322 6.96438 8.88828L7.17981 9.75H6.35578L5.55172 5.5H9.125C9.37381 5.5 9.5 5.58409 9.5 5.75ZM2 15.4375V14.8125C2 14.7959 2.00658 14.78 2.01831 14.7683C2.03003 14.7566 2.04592 14.75 2.0625 14.75H8.25V15.5H2.0625C2.04592 15.5 2.03003 15.4934 2.01831 15.4817C2.00658 15.47 2 15.4541 2 15.4375ZM15.5 15.4375C15.5 15.4541 15.4934 15.47 15.4817 15.4817C15.47 15.4934 15.4541 15.5 15.4375 15.5H8.75V14.75H11.2188C11.227 14.75 11.235 14.7533 11.2408 14.7592C11.2467 14.765 11.25 14.773 11.25 14.7812C11.2501 14.9055 11.2996 15.0247 11.3874 15.1126C11.4753 15.2004 11.5945 15.2499 11.7188 15.25H12.7812C12.9055 15.2499 13.0247 15.2004 13.1126 15.1126C13.2004 15.0247 13.2499 14.9055 13.25 14.7812C13.25 14.773 13.2533 14.765 13.2592 14.7592C13.265 14.7533 13.273 14.75 13.2812 14.75H15.4375C15.4541 14.75 15.47 14.7566 15.4817 14.7683C15.4934 14.78 15.5 14.7959 15.5 14.8125V15.4375ZM7.75 7.49999C7.89834 7.49999 8.04334 7.45601 8.16668 7.37359C8.29001 7.29118 8.38614 7.17405 8.44291 7.037C8.49967 6.89996 8.51453 6.74916 8.48559 6.60367C8.45665 6.45819 8.38522 6.32455 8.28033 6.21966C8.17544 6.11477 8.0418 6.04334 7.89632 6.0144C7.75083 5.98547 7.60003 6.00032 7.46299 6.05708C7.32594 6.11385 7.20881 6.20998 7.1264 6.33332C7.04399 6.45665 7 6.60166 7 6.74999C7.00022 6.94884 7.07931 7.13947 7.21992 7.28008C7.36052 7.42068 7.55116 7.49977 7.75 7.49999ZM7.75 6.49999C7.79945 6.49999 7.84778 6.51465 7.88889 6.54213C7.93 6.5696 7.96205 6.60864 7.98097 6.65432C7.99989 6.7 8.00484 6.75027 7.9952 6.79877C7.98555 6.84726 7.96174 6.89181 7.92678 6.92677C7.89181 6.96173 7.84727 6.98554 7.79877 6.99519C7.75028 7.00484 7.70001 6.99988 7.65433 6.98096C7.60865 6.96204 7.5696 6.93 7.54213 6.88889C7.51466 6.84777 7.5 6.79944 7.5 6.74999C7.50007 6.68371 7.52644 6.62017 7.57331 6.5733C7.62017 6.52643 7.68372 6.50007 7.75 6.49999ZM3.33332 10.6264C3.45666 10.544 3.60166 10.5 3.75 10.5C3.94884 10.5002 4.13948 10.5793 4.28008 10.7199C4.42069 10.8605 4.49978 11.0512 4.5 11.25C4.5 11.3983 4.45601 11.5433 4.3736 11.6667C4.29119 11.79 4.17406 11.8861 4.03701 11.9429C3.89997 11.9997 3.74917 12.0145 3.60368 11.9856C3.4582 11.9566 3.32456 11.8852 3.21967 11.7803C3.11478 11.6754 3.04335 11.5418 3.01441 11.3963C2.98547 11.2508 3.00032 11.1 3.05709 10.963C3.11386 10.8259 3.20999 10.7088 3.33332 10.6264ZM3.61111 11.4579C3.65222 11.4853 3.70056 11.5 3.75 11.5C3.81628 11.4999 3.87983 11.4736 3.92669 11.4267C3.97356 11.3798 3.99993 11.3163 4 11.25C4 11.2006 3.98534 11.1522 3.95787 11.1111C3.9304 11.07 3.89135 11.038 3.84567 11.019C3.79999 11.0001 3.74972 10.9952 3.70123 11.0048C3.65273 11.0145 3.60819 11.0383 3.57322 11.0732C3.53826 11.1082 3.51445 11.1527 3.5048 11.2012C3.49516 11.2497 3.50011 11.3 3.51903 11.3457C3.53795 11.3914 3.57 11.4304 3.61111 11.4579ZM8.49999 10.5C8.35165 10.5 8.20665 10.544 8.08331 10.6264C7.95997 10.7088 7.86384 10.8259 7.80708 10.963C7.75031 11.1 7.73546 11.2508 7.7644 11.3963C7.79333 11.5418 7.86477 11.6754 7.96966 11.7803C8.07454 11.8852 8.20818 11.9566 8.35367 11.9856C8.49915 12.0145 8.64995 11.9997 8.787 11.9429C8.92404 11.8861 9.04118 11.79 9.12359 11.6667C9.206 11.5433 9.24999 11.3983 9.24999 11.25C9.24976 11.0512 9.17067 10.8605 9.03007 10.7199C8.88947 10.5793 8.69883 10.5002 8.49999 10.5ZM8.49999 11.5C8.45054 11.5 8.40221 11.4853 8.36109 11.4579C8.31998 11.4304 8.28794 11.3914 8.26902 11.3457C8.25009 11.3 8.24514 11.2497 8.25479 11.2012C8.26444 11.1527 8.28825 11.1082 8.32321 11.0732C8.35817 11.0383 8.40272 11.0145 8.45121 11.0048C8.49971 10.9952 8.54997 11.0001 8.59566 11.019C8.64134 11.038 8.68038 11.07 8.70785 11.1111C8.73532 11.1522 8.74999 11.2006 8.74999 11.25C8.74991 11.3163 8.72355 11.3798 8.67668 11.4267C8.62981 11.4736 8.56627 11.4999 8.49999 11.5ZM9.83332 1.3764C9.95666 1.29399 10.1017 1.25 10.25 1.25C10.4488 1.25022 10.6395 1.32931 10.7801 1.46992C10.9207 1.61052 10.9998 1.80116 11 2C11 2.14834 10.956 2.29334 10.8736 2.41668C10.7912 2.54001 10.6741 2.63614 10.537 2.69291C10.4 2.74968 10.2492 2.76453 10.1037 2.73559C9.9582 2.70665 9.82456 2.63522 9.71967 2.53033C9.61478 2.42544 9.54335 2.2918 9.51441 2.14632C9.48547 2.00083 9.50033 1.85003 9.55709 1.71299C9.61386 1.57594 9.70999 1.45881 9.83332 1.3764ZM10.1111 2.20787C10.1522 2.23534 10.2006 2.25 10.25 2.25C10.3163 2.24993 10.3798 2.22356 10.4267 2.17669C10.4736 2.12983 10.4999 2.06628 10.5 2C10.5 1.95055 10.4853 1.90222 10.4579 1.86111C10.4304 1.82 10.3914 1.78795 10.3457 1.76903C10.3 1.75011 10.2497 1.74516 10.2012 1.7548C10.1527 1.76445 10.1082 1.78826 10.0732 1.82322C10.0383 1.85819 10.0145 1.90273 10.0048 1.95123C9.99516 1.99972 10.0001 2.04999 10.019 2.09567C10.038 2.14135 10.07 2.1804 10.1111 2.20787ZM12.25 1.25C12.1017 1.25 11.9567 1.29399 11.8333 1.3764C11.71 1.45881 11.6139 1.57594 11.5571 1.71299C11.5003 1.85003 11.4855 2.00083 11.5144 2.14632C11.5434 2.2918 11.6148 2.42544 11.7197 2.53033C11.8246 2.63522 11.9582 2.70665 12.1037 2.73559C12.2492 2.76453 12.4 2.74968 12.537 2.69291C12.6741 2.63614 12.7912 2.54001 12.8736 2.41668C12.956 2.29334 13 2.14834 13 2C12.9998 1.80116 12.9207 1.61052 12.7801 1.46992C12.6395 1.32931 12.4488 1.25022 12.25 1.25ZM12.25 2.25C12.2006 2.25 12.1522 2.23534 12.1111 2.20787C12.07 2.1804 12.038 2.14135 12.019 2.09567C12.0001 2.04999 11.9952 1.99972 12.0048 1.95123C12.0145 1.90273 12.0383 1.85819 12.0732 1.82322C12.1082 1.78826 12.1527 1.76445 12.2012 1.7548C12.2497 1.74516 12.3 1.75011 12.3457 1.76903C12.3914 1.78795 12.4304 1.82 12.4579 1.86111C12.4853 1.90222 12.5 1.95055 12.5 2C12.4999 2.06628 12.4736 2.12983 12.4267 2.17669C12.3798 2.22356 12.3163 2.24993 12.25 2.25ZM13.8333 1.3764C13.9567 1.29399 14.1017 1.25 14.25 1.25C14.4488 1.25022 14.6395 1.32931 14.7801 1.46992C14.9207 1.61052 14.9998 1.80116 15 2C15 2.14834 14.956 2.29334 14.8736 2.41668C14.7912 2.54001 14.6741 2.63614 14.537 2.69291C14.4 2.74968 14.2492 2.76453 14.1037 2.73559C13.9582 2.70665 13.8246 2.63522 13.7197 2.53033C13.6148 2.42544 13.5434 2.2918 13.5144 2.14632C13.4855 2.00083 13.5003 1.85003 13.5571 1.71299C13.6139 1.57594 13.71 1.45881 13.8333 1.3764ZM14.1111 2.20787C14.1522 2.23534 14.2006 2.25 14.25 2.25C14.3163 2.24993 14.3798 2.22356 14.4267 2.17669C14.4736 2.12983 14.4999 2.06628 14.5 2C14.5 1.95055 14.4853 1.90222 14.4579 1.86111C14.4304 1.82 14.3914 1.78795 14.3457 1.76903C14.3 1.75011 14.2497 1.74516 14.2012 1.7548C14.1527 1.76445 14.1082 1.78826 14.0732 1.82322C14.0383 1.85819 14.0145 1.90273 14.0048 1.95123C13.9952 1.99972 14.0001 2.04999 14.019 2.09567C14.038 2.14135 14.07 2.1804 14.1111 2.20787Z" fill="url(#paint0_linear)"/>
<defs>
<linearGradient id="paint0_linear" x1="-4.48134" y1="8.00003" x2="20.9312" y2="8.00003" gradientUnits="userSpaceOnUse">
<stop stop-color="#99E6FC"/>
<stop offset="0.5725" stop-color="#01D0FB"/>
<stop offset="1" stop-color="#4F66D0"/>
</linearGradient>
</defs>
</svg>
