<svg width="512" height="512" viewBox="0 0 512 512" fill="none" xmlns="http://www.w3.org/2000/svg">
<path fill-rule="evenodd" clip-rule="evenodd" d="M316.571 0H467.429C493.671 0 512 16.449 512 40V96C512 120.673 496.673 136 472 136H425.727L374.412 204.784C373.362 206.192 371.877 207.215 370.188 207.695C368.498 208.175 366.698 208.086 365.064 207.442C363.43 206.797 362.054 205.633 361.148 204.128C360.241 202.624 359.855 200.863 360.049 199.117L367.062 136H312C287.327 136 272 120.673 272 96V40C272 16.449 290.329 0 316.571 0ZM472 120C487.7 120 496 111.7 496 96V40C496 23.421 481.65 16 467.429 16H316.571C302.35 16 288 23.421 288 40V96C288 111.7 296.3 120 312 120H376C377.125 120.001 378.236 120.238 379.263 120.698C380.289 121.157 381.207 121.827 381.957 122.665C382.707 123.503 383.272 124.49 383.615 125.561C383.958 126.632 384.071 127.763 383.947 128.881L379.2 171.6L415.302 123.216C416.047 122.218 417.014 121.407 418.127 120.849C419.241 120.291 420.469 120 421.714 120H472ZM316.571 8H467.429C487.626 8 504 19.8 504 40V96C504 116.2 492.2 128 472 128H421.714L368 200L376 128H312C291.8 128 280 116.2 280 96V40C280 19.8 296.374 8 316.571 8ZM8 184L30.51 320H88L78.621 282.485C77.8353 279.342 77.7762 276.062 78.4482 272.893C79.1201 269.725 80.5054 266.751 82.4989 264.197C84.4924 261.644 87.0416 259.579 89.9528 258.159C92.8641 256.738 96.0607 256 99.3 256H119.358C124.112 256 128.729 257.589 132.476 260.515C136.223 263.44 138.884 267.534 140.037 272.146L152 320H190.951L208.391 338.458L230.628 456H253.754L246.86 428.425C245.78 424.103 245.698 419.592 246.622 415.234C247.547 410.876 249.452 406.786 252.194 403.274C254.832 399.895 258.178 397.137 261.995 395.193L267.818 401.356C267.185 401.593 266.563 401.861 265.953 402.159C263.042 403.579 260.492 405.644 258.499 408.197C256.505 410.751 255.12 413.725 254.448 416.893C253.776 420.062 253.835 423.342 254.621 426.485L264 464H176L164.037 416.146C162.884 411.534 160.223 407.44 156.476 404.515C152.729 401.589 148.112 400 143.358 400H123.3C120.061 400 116.864 400.738 113.953 402.159C111.042 403.579 108.492 405.644 106.499 408.197C104.505 410.751 103.12 413.725 102.448 416.893C101.776 420.062 101.835 423.342 102.621 426.485L112 464H66C63.3478 464 60.8043 465.054 58.9289 466.929C57.0536 468.804 56 471.348 56 474V494C56 496.652 57.0536 499.196 58.9289 501.071C60.8043 502.946 63.3478 504 66 504H272H494C496.652 504 499.196 502.946 501.071 501.071C502.946 499.196 504 496.652 504 494V474C504 471.348 502.946 468.804 501.071 466.929C499.196 465.054 496.652 464 494 464H425C422.613 464 420.324 464.948 418.636 466.636C416.948 468.324 416 470.613 416 473C416 474.857 415.263 476.637 413.95 477.95C412.637 479.262 410.857 480 409 480H375C373.144 480 371.363 479.262 370.05 477.95C368.738 476.637 368 474.857 368 473C368 470.613 367.052 468.324 365.364 466.636C363.801 465.073 361.723 464.144 359.529 464.016L360 464L312 184C312 172.954 303.046 168 292 168H168L197.1 320H197.096H190.951L183.392 312H187.1L161.372 176H54.8966L47.338 168H28C16.954 168 8 172.954 8 184ZM77.8515 200.295L54.8966 176H28C20.324 176 16.3 178.5 16.016 183.437L37.295 312H77.754L70.86 284.425C69.7795 280.103 69.6983 275.592 70.6224 271.234C71.5466 266.876 73.4519 262.786 76.1935 259.274C78.9352 255.763 82.4411 252.922 86.4449 250.969C90.4487 249.015 94.845 248 99.3 248H119.357C120.632 247.998 121.9 248.08 123.153 248.242L149.201 275.812L158.246 312H183.392L149.201 275.812L147.8 270.206C146.221 263.859 142.562 258.224 137.407 254.199C133.257 250.959 128.329 248.913 123.153 248.242L110.65 235.01C113.966 232.454 116.564 229.069 118.173 225.184C119.99 220.799 120.465 215.973 119.539 211.318C118.613 206.662 116.327 202.386 112.971 199.029C109.614 195.673 105.338 193.387 100.682 192.461C96.0266 191.535 91.201 192.01 86.8156 193.827C83.3524 195.261 80.2866 197.481 77.8515 200.295ZM83.3871 206.154L77.8515 200.295C77.203 201.045 76.5993 201.836 76.0447 202.666C73.4076 206.613 72 211.253 72 216C72.0071 222.363 74.538 228.463 79.0373 232.963C83.5367 237.462 89.637 239.993 96 240C100.747 240 105.387 238.592 109.334 235.955C109.784 235.654 110.223 235.339 110.65 235.01L105.115 229.151C109.276 226.262 112 221.449 112 216C112 207.163 104.837 200 96 200C90.8765 200 86.3155 202.408 83.3871 206.154ZM89.0135 212.109L83.3871 206.154C81.2648 208.869 80 212.287 80 216C80 224.837 87.1634 232 96 232C99.3873 232 102.529 230.947 105.115 229.151L99.4906 223.198C100.289 222.811 101.022 222.291 101.657 221.657C102.776 220.538 103.538 219.113 103.846 217.561C104.155 216.009 103.997 214.4 103.391 212.939C102.786 211.477 101.76 210.227 100.445 209.348C99.129 208.469 97.5823 208 96 208C93.879 208.002 91.8456 208.846 90.3458 210.346C89.8176 210.874 89.3708 211.468 89.0135 212.109ZM89.0135 212.109L99.4906 223.198C98.8807 223.494 98.2326 223.713 97.5607 223.846C96.0089 224.155 94.4003 223.997 92.9385 223.391C91.4767 222.786 90.2273 221.76 89.3482 220.445C88.4692 219.129 88 217.582 88 216C88.0015 214.626 88.3561 213.289 89.0135 212.109ZM317.145 453.564L328 465.053L359.529 464.016C359.353 464.005 359.177 464 359 464H328L316.037 416.146C314.884 411.534 312.223 407.44 308.476 404.515C304.729 401.589 300.112 400 295.358 400H275.3C272.739 400 270.205 400.461 267.818 401.356L274.143 408.05C272.519 408.192 270.932 408.631 269.461 409.348C267.643 410.236 266.05 411.526 264.805 413.12C263.56 414.715 262.694 416.573 262.274 418.552C261.854 420.532 261.891 422.581 262.382 424.544L270.246 456H317.754L317.145 453.564ZM317.145 453.564L308.275 418.086C307.557 415.204 305.895 412.645 303.555 410.817C301.214 408.989 298.328 407.997 295.358 408H275.3C274.913 408 274.527 408.017 274.143 408.05L317.145 453.564ZM261.995 395.193L208.391 338.458L206.412 328H328.569L350.512 456H334.246L323.8 414.206C322.221 407.859 318.562 402.224 313.407 398.199C308.252 394.174 301.897 391.992 295.357 392H275.3C270.845 392 266.449 393.015 262.445 394.969C262.294 395.042 262.144 395.117 261.995 395.193ZM240 320H304L292.037 272.146C290.884 267.534 288.223 263.44 284.476 260.515C280.729 257.589 276.112 256 271.358 256H251.3C248.061 256 244.864 256.738 241.953 258.159C239.042 259.579 236.492 261.644 234.499 264.197C232.505 266.751 231.12 269.725 230.448 272.893C229.776 276.062 229.835 279.342 230.621 282.485L240 320ZM248 232C256.837 232 264 224.837 264 216C264 207.163 256.837 200 248 200C239.163 200 232 207.163 232 216C232 224.837 239.163 232 248 232ZM120 376C128.837 376 136 368.837 136 360C136 351.163 128.837 344 120 344C111.163 344 104 351.163 104 360C104 368.837 111.163 376 120 376ZM272 376C280.837 376 288 368.837 288 360C288 351.163 280.837 344 272 344C263.163 344 256 351.163 256 360C256 368.837 263.163 376 272 376ZM344 64C344 72.8365 336.837 80 328 80C319.163 80 312 72.8365 312 64C312 55.1634 319.163 48 328 48C336.837 48 344 55.1634 344 64ZM392 80C400.837 80 408 72.8365 408 64C408 55.1634 400.837 48 392 48C383.163 48 376 55.1634 376 64C376 72.8365 383.163 80 392 80ZM472 64C472 72.8365 464.837 80 456 80C447.163 80 440 72.8365 440 64C440 55.1634 447.163 48 456 48C464.837 48 472 55.1634 472 64ZM494 456H425C420.666 456.005 416.497 457.663 413.343 460.637C410.19 463.61 408.289 467.674 408.029 472H375.971C375.797 469.116 374.891 466.324 373.339 463.887C371.787 461.449 369.64 459.448 367.1 458.07L319.991 183.264C319.626 169.1 308.722 160 292 160H28C10.991 160 0 169.42 0 184V184.658L48 474.658V494C48.0053 498.772 49.9034 503.348 53.2779 506.722C56.6524 510.097 61.2277 511.995 66 512H494C498.772 511.995 503.348 510.097 506.722 506.722C510.097 503.348 511.995 498.772 512 494V474C511.995 469.228 510.097 464.652 506.722 461.278C503.348 457.903 498.772 456.005 494 456ZM110.382 424.544C109.891 422.581 109.854 420.532 110.274 418.552C110.694 416.573 111.56 414.715 112.805 413.12C114.05 411.526 115.643 410.236 117.461 409.348C119.28 408.461 121.277 408 123.3 408H143.358C146.328 407.997 149.214 408.989 151.555 410.817C153.895 412.645 155.557 415.204 156.275 418.086L165.754 456H118.246L110.382 424.544ZM182.246 456L171.8 414.206C170.221 407.859 166.562 402.224 161.407 398.199C156.252 394.174 149.897 391.992 143.357 392H123.3C118.845 392 114.449 393.015 110.445 394.969C106.441 396.922 102.935 399.763 100.194 403.274C97.4519 406.786 95.5466 410.876 94.6224 415.234C93.6983 419.592 93.7795 424.103 94.86 428.425L101.754 456H66C64.3906 456.005 62.7892 456.227 61.239 456.66L39.943 328H190.129L214.345 456H182.246ZM86.382 280.544C85.8913 278.581 85.8544 276.532 86.2743 274.552C86.6941 272.573 87.5595 270.715 88.8048 269.12C90.0501 267.526 91.6426 266.236 93.4611 265.348C95.2797 264.461 97.2766 264 99.3 264H119.358C122.328 263.997 125.214 264.989 127.555 266.817C129.895 268.645 131.557 271.204 132.275 274.086L141.754 312H94.246L86.382 280.544ZM238.382 280.544C237.891 278.581 237.854 276.532 238.274 274.552C238.694 272.573 239.56 270.715 240.805 269.12C242.05 267.526 243.643 266.236 245.461 265.348C247.28 264.461 249.277 264 251.3 264H271.358C274.328 263.997 277.214 264.989 279.555 266.817C281.895 268.645 283.557 271.204 284.275 274.086L293.754 312H246.246L238.382 280.544ZM304 184V184.681L325.826 312H310.246L299.8 270.206C298.221 263.859 294.562 258.224 289.407 254.199C284.252 250.174 277.897 247.992 271.357 248H251.3C246.845 248 242.449 249.015 238.445 250.969C234.441 252.922 230.935 255.763 228.194 259.274C225.452 262.786 223.547 266.876 222.622 271.234C221.698 275.592 221.78 280.103 222.86 284.425L229.754 312H203.385L177.655 176H292C299.962 176 304 178.691 304 184ZM64 494V474C64 473.47 64.2107 472.961 64.5858 472.586C64.9609 472.211 65.4696 472 66 472H264V496H66C65.4696 496 64.9609 495.789 64.5858 495.414C64.2107 495.039 64 494.53 64 494ZM496 494C496 494.53 495.789 495.039 495.414 495.414C495.039 495.789 494.53 496 494 496H280V472H359C359.265 472 359.52 472.105 359.707 472.293C359.895 472.48 360 472.735 360 473C360.004 476.977 361.586 480.79 364.398 483.602C367.21 486.414 371.023 487.996 375 488H409C412.977 487.996 416.79 486.414 419.602 483.602C422.414 480.79 423.996 476.977 424 473C424 472.735 424.105 472.48 424.293 472.293C424.48 472.105 424.735 472 425 472H494C494.53 472 495.039 472.211 495.414 472.586C495.789 472.961 496 473.47 496 474V494ZM248 240C252.747 240 257.387 238.592 261.334 235.955C265.28 233.318 268.357 229.57 270.173 225.184C271.99 220.799 272.465 215.973 271.539 211.318C270.613 206.662 268.327 202.386 264.971 199.029C261.614 195.673 257.338 193.387 252.682 192.461C248.027 191.535 243.201 192.01 238.816 193.827C234.43 195.643 230.682 198.72 228.045 202.666C225.408 206.613 224 211.253 224 216C224.007 222.363 226.538 228.463 231.037 232.963C235.537 237.462 241.637 239.993 248 240ZM248 208C249.582 208 251.129 208.469 252.445 209.348C253.76 210.227 254.786 211.477 255.391 212.939C255.997 214.4 256.155 216.009 255.846 217.561C255.538 219.113 254.776 220.538 253.657 221.657C252.538 222.776 251.113 223.538 249.561 223.846C248.009 224.155 246.4 223.997 244.939 223.391C243.477 222.786 242.227 221.76 241.348 220.445C240.469 219.129 240 217.582 240 216C240.002 213.879 240.846 211.846 242.346 210.346C243.846 208.846 245.879 208.002 248 208ZM106.666 340.045C110.613 337.408 115.253 336 120 336C126.363 336.007 132.463 338.538 136.963 343.037C141.462 347.537 143.993 353.637 144 360C144 364.747 142.592 369.387 139.955 373.334C137.318 377.28 133.57 380.357 129.184 382.173C124.799 383.99 119.973 384.465 115.318 383.539C110.662 382.613 106.386 380.327 103.029 376.971C99.673 373.614 97.3872 369.338 96.4612 364.682C95.5351 360.027 96.0104 355.201 97.8269 350.816C99.6434 346.43 102.72 342.682 106.666 340.045ZM115.555 366.652C116.871 367.531 118.418 368 120 368C122.121 367.998 124.154 367.154 125.654 365.654C127.154 364.154 127.998 362.121 128 360C128 358.418 127.531 356.871 126.652 355.555C125.773 354.24 124.523 353.214 123.061 352.609C121.6 352.003 119.991 351.845 118.439 352.154C116.887 352.462 115.462 353.224 114.343 354.343C113.224 355.462 112.462 356.887 112.154 358.439C111.845 359.991 112.003 361.6 112.609 363.061C113.214 364.523 114.24 365.773 115.555 366.652ZM272 336C267.253 336 262.613 337.408 258.666 340.045C254.72 342.682 251.643 346.43 249.827 350.816C248.01 355.201 247.535 360.027 248.461 364.682C249.387 369.338 251.673 373.614 255.029 376.971C258.386 380.327 262.662 382.613 267.318 383.539C271.973 384.465 276.799 383.99 281.184 382.173C285.57 380.357 289.318 377.28 291.955 373.334C294.592 369.387 296 364.747 296 360C295.993 353.637 293.462 347.537 288.963 343.037C284.463 338.538 278.363 336.007 272 336ZM272 368C270.418 368 268.871 367.531 267.555 366.652C266.24 365.773 265.214 364.523 264.609 363.061C264.003 361.6 263.845 359.991 264.154 358.439C264.462 356.887 265.224 355.462 266.343 354.343C267.462 353.224 268.887 352.462 270.439 352.154C271.991 351.845 273.6 352.003 275.061 352.609C276.523 353.214 277.773 354.24 278.652 355.555C279.531 356.871 280 358.418 280 360C279.998 362.121 279.154 364.154 277.654 365.654C276.154 367.154 274.121 367.998 272 368ZM314.666 44.0447C318.613 41.4076 323.253 40 328 40C334.363 40.0071 340.463 42.538 344.963 47.0373C349.462 51.5367 351.993 57.637 352 64C352 68.7467 350.592 73.3869 347.955 77.3337C345.318 81.2805 341.57 84.3566 337.184 86.1731C332.799 87.9896 327.973 88.4649 323.318 87.5388C318.662 86.6128 314.386 84.327 311.029 80.9706C307.673 77.6141 305.387 73.3377 304.461 68.6822C303.535 64.0266 304.01 59.201 305.827 54.8156C307.643 50.4302 310.72 46.6819 314.666 44.0447ZM323.555 70.6517C324.871 71.5308 326.418 72 328 72C330.121 71.9976 332.154 71.154 333.654 69.6542C335.154 68.1544 335.998 66.121 336 64C336 62.4177 335.531 60.871 334.652 59.5554C333.773 58.2398 332.523 57.2145 331.061 56.609C329.6 56.0035 327.991 55.845 326.439 56.1537C324.887 56.4624 323.462 57.2243 322.343 58.3431C321.224 59.462 320.462 60.8874 320.154 62.4393C319.845 63.9911 320.004 65.5997 320.609 67.0615C321.215 68.5233 322.24 69.7727 323.555 70.6517ZM392 40C387.253 40 382.613 41.4076 378.666 44.0447C374.72 46.6819 371.643 50.4302 369.827 54.8156C368.01 59.201 367.535 64.0266 368.461 68.6822C369.387 73.3377 371.673 77.6141 375.029 80.9706C378.386 84.327 382.662 86.6128 387.318 87.5388C391.973 88.4649 396.799 87.9896 401.184 86.1731C405.57 84.3566 409.318 81.2805 411.955 77.3337C414.592 73.3869 416 68.7467 416 64C415.993 57.637 413.462 51.5367 408.963 47.0373C404.463 42.538 398.363 40.0071 392 40ZM392 72C390.418 72 388.871 71.5308 387.555 70.6517C386.24 69.7727 385.215 68.5233 384.609 67.0615C384.004 65.5997 383.845 63.9911 384.154 62.4393C384.462 60.8874 385.224 59.462 386.343 58.3431C387.462 57.2243 388.887 56.4624 390.439 56.1537C391.991 55.845 393.6 56.0035 395.061 56.609C396.523 57.2145 397.773 58.2398 398.652 59.5554C399.531 60.871 400 62.4177 400 64C399.998 66.121 399.154 68.1544 397.654 69.6542C396.154 71.154 394.121 71.9976 392 72ZM442.666 44.0447C446.613 41.4076 451.253 40 456 40C462.363 40.0071 468.463 42.538 472.963 47.0373C477.462 51.5367 479.993 57.637 480 64C480 68.7467 478.592 73.3869 475.955 77.3337C473.318 81.2805 469.57 84.3566 465.184 86.1731C460.799 87.9896 455.973 88.4649 451.318 87.5388C446.662 86.6128 442.386 84.327 439.029 80.9706C435.673 77.6141 433.387 73.3377 432.461 68.6822C431.535 64.0266 432.01 59.201 433.827 54.8156C435.643 50.4302 438.72 46.6819 442.666 44.0447ZM451.555 70.6517C452.871 71.5308 454.418 72 456 72C458.121 71.9976 460.154 71.154 461.654 69.6542C463.154 68.1544 463.998 66.121 464 64C464 62.4177 463.531 60.871 462.652 59.5554C461.773 58.2398 460.523 57.2145 459.061 56.609C457.6 56.0035 455.991 55.845 454.439 56.1537C452.887 56.4624 451.462 57.2243 450.343 58.3431C449.224 59.462 448.462 60.8874 448.154 62.4393C447.845 63.9911 448.004 65.5997 448.609 67.0615C449.215 68.5233 450.24 69.7727 451.555 70.6517Z" fill="url(#paint0_linear)"/>
<defs>
<linearGradient id="paint0_linear" x1="-143.403" y1="256.001" x2="669.799" y2="256.001" gradientUnits="userSpaceOnUse">
<stop stop-color="#99E6FC"/>
<stop offset="0.5725" stop-color="#01D0FB"/>
<stop offset="1" stop-color="#4F66D0"/>
</linearGradient>
</defs>
</svg>
