<svg width="192" height="192" viewBox="0 0 192 192" fill="none" xmlns="http://www.w3.org/2000/svg">
<path fill-rule="evenodd" clip-rule="evenodd" d="M118.714 0H175.286C185.127 0 192 6.16838 192 15V36C192 45.2524 186.252 51 177 51H159.648L140.405 76.794C140.011 77.3219 139.454 77.7055 138.82 77.8856C138.187 78.0657 137.512 78.0323 136.899 77.7906C136.286 77.5489 135.77 77.1122 135.43 76.548C135.09 75.9838 134.946 75.3235 135.018 74.6689L137.648 51H117C107.748 51 102 45.2524 102 36V15C102 6.16838 108.873 0 118.714 0ZM177 45C182.888 45 186 41.8875 186 36V15C186 8.78288 180.619 6 175.286 6H118.714C113.381 6 108 8.78288 108 15V36C108 41.8875 111.113 45 117 45H141C141.422 45.0002 141.839 45.0894 142.224 45.2616C142.609 45.4338 142.953 45.6852 143.234 45.9995C143.515 46.3138 143.727 46.6838 143.856 47.0854C143.984 47.487 144.027 47.9112 143.98 48.3304L142.2 64.35L155.738 46.206C156.018 45.8317 156.38 45.5278 156.798 45.3184C157.215 45.109 157.676 45 158.143 45H177ZM118.714 3H175.286C182.86 3 189 7.425 189 15V36C189 43.575 184.575 48 177 48H158.143L138 75L141 48H117C109.425 48 105 43.575 105 36V15C105 7.425 111.14 3 118.714 3ZM73.911 120H73.9125L63 63H109.5C113.642 63 117 64.8577 117 69L135 174L134.823 174.006C134.757 174.002 134.691 174 134.625 174H123L118.514 156.055C118.082 154.325 117.084 152.79 115.678 151.693C114.273 150.596 112.542 150 110.759 150H103.238C102.277 150 101.327 150.173 100.432 150.509L98.2481 148.197C98.3041 148.169 98.3603 148.141 98.4168 148.113C99.9183 147.381 101.567 147 103.237 147H110.759C113.211 146.997 115.594 147.815 117.528 149.325C119.461 150.834 120.833 152.947 121.425 155.327L125.342 171H131.442L123.213 123H77.4045L78.1465 126.922L71.6066 120H73.911ZM20.5862 66L17.7518 63H10.5C6.35775 63 3 64.8577 3 69L11.4413 120H33L29.4829 105.932C29.1882 104.753 29.1661 103.523 29.4181 102.335C29.67 101.147 30.1895 100.031 30.9371 99.074C31.6847 98.1166 32.6406 97.3421 33.7323 96.8095C34.824 96.2768 36.0228 96 37.2375 96H44.7593C46.5419 96 48.2734 96.5959 49.6785 97.6929C51.0835 98.79 52.0816 100.325 52.5139 102.055L57 120H71.6066L68.7721 117H70.1625L60.5145 66H20.5862ZM29.1943 75.1108L20.5862 66H10.5C7.6215 66 6.1125 66.9375 6.006 68.7889L13.9856 117H29.1577L26.5725 106.659C26.1673 105.039 26.1368 103.347 26.4834 101.713C26.83 100.078 27.5445 98.5446 28.5726 97.2278C29.6007 95.911 30.9154 94.8459 32.4168 94.1133C33.9183 93.3807 35.5669 93 37.2375 93H44.7589C45.2369 92.9994 45.7123 93.03 46.1823 93.0909L55.9505 103.43L59.3423 117H68.7721L55.9505 103.43L55.425 101.327C54.8329 98.9472 53.4608 96.834 51.5276 95.3247C49.9712 94.1096 48.1233 93.3423 46.1823 93.0909L41.4938 88.1287C42.7373 87.1704 43.7115 85.901 44.3149 84.4441C44.9961 82.7996 45.1743 80.99 44.8271 79.2442C44.4798 77.4984 43.6226 75.8947 42.364 74.636C41.1053 73.3774 39.5016 72.5202 37.7558 72.1729C36.01 71.8257 34.2004 72.0039 32.5558 72.6851C31.2572 73.223 30.1075 74.0555 29.1943 75.1108ZM31.2701 77.3079L29.1943 75.1108C28.9511 75.3918 28.7247 75.6886 28.5168 75.9999C27.5278 77.4799 27 79.22 27 81C27.0027 83.3861 27.9518 85.6738 29.639 87.361C31.3262 89.0482 33.6139 89.9973 36 90C37.78 90 39.5201 89.4722 41.0001 88.4832C41.169 88.3704 41.3337 88.2521 41.4938 88.1287L39.4182 85.9318C40.9785 84.8483 42 83.0435 42 81C42 77.6863 39.3137 75 36 75C34.0787 75 32.3683 75.9031 31.2701 77.3079ZM33.3801 79.541L31.2701 77.3079C30.4743 78.326 30 79.6076 30 81C30 84.3137 32.6863 87 36 87C37.2702 87 38.4483 86.6053 39.4182 85.9318L37.309 83.6994C37.6085 83.5541 37.8834 83.3592 38.1213 83.1213C38.5409 82.7018 38.8266 82.1672 38.9424 81.5853C39.0581 81.0033 38.9987 80.4001 38.7716 79.8519C38.5446 79.3038 38.1601 78.8352 37.6667 78.5056C37.1734 78.1759 36.5933 78 36 78C35.2046 78.0009 34.4421 78.3172 33.8797 78.8797C33.6816 79.0777 33.5141 79.3006 33.3801 79.541ZM33.3801 79.541L37.309 83.6994C37.0803 83.8103 36.8372 83.8922 36.5853 83.9424C36.0033 84.0581 35.4001 83.9987 34.8519 83.7716C34.3038 83.5446 33.8352 83.1601 33.5056 82.6667C33.1759 82.1734 33 81.5933 33 81C33.0006 80.4847 33.1336 79.9832 33.3801 79.541ZM78.1465 126.922L86.4855 171H95.1577L92.5725 160.659C92.1673 159.039 92.1368 157.347 92.4834 155.713C92.83 154.078 93.5445 152.545 94.5726 151.228C95.562 149.961 96.8168 148.926 98.2481 148.197L78.1465 126.922ZM102.803 153.019L100.432 150.509C100.194 150.598 99.961 150.698 99.7323 150.809C98.6406 151.342 97.6847 152.117 96.9371 153.074C96.1896 154.031 95.6701 155.147 95.4181 156.335C95.1661 157.523 95.1883 158.753 95.4829 159.932L99 174H66L61.5139 156.055C61.0816 154.325 60.0835 152.79 58.6785 151.693C57.2734 150.596 55.5419 150 53.7592 150H46.2375C45.0228 150 43.824 150.277 42.7323 150.809C41.6406 151.342 40.6847 152.117 39.9371 153.074C39.1895 154.031 38.67 155.147 38.418 156.335C38.1661 157.523 38.1882 158.753 38.4829 159.932L42 174H24.75C23.7554 174 22.8016 174.395 22.0984 175.098C21.3951 175.802 21 176.755 21 177.75V185.25C21 186.245 21.3951 187.198 22.0984 187.902C22.8016 188.605 23.7554 189 24.75 189H102H185.25C186.245 189 187.198 188.605 187.902 187.902C188.605 187.198 189 186.245 189 185.25V177.75C189 176.755 188.605 175.802 187.902 175.098C187.198 174.395 186.245 174 185.25 174H159.375C158.48 174 157.621 174.356 156.989 174.989C156.356 175.621 156 176.48 156 177.375C156 178.071 155.723 178.739 155.231 179.231C154.739 179.723 154.071 180 153.375 180H140.625C139.929 180 139.261 179.723 138.769 179.231C138.277 178.739 138 178.071 138 177.375C138 176.48 137.644 175.621 137.012 174.989C136.425 174.402 135.646 174.054 134.823 174.006L123 174.395L118.929 170.087L115.603 156.782C115.334 155.701 114.711 154.742 113.833 154.056C112.955 153.371 111.873 152.999 110.759 153H103.237C103.092 153 102.948 153.006 102.803 153.019ZM102.803 153.019L118.929 170.087L119.158 171H101.342L98.3932 159.204C98.2092 158.468 98.1954 157.699 98.3528 156.957C98.5103 156.215 98.8348 155.518 99.3018 154.92C99.7688 154.322 100.366 153.838 101.048 153.506C101.599 153.237 102.195 153.072 102.803 153.019ZM90 120H114L109.514 102.055C109.082 100.325 108.084 98.79 106.678 97.6929C105.273 96.5959 103.542 96 101.759 96H94.2375C93.0228 96 91.824 96.2768 90.7323 96.8095C89.6406 97.3421 88.6847 98.1166 87.9371 99.074C87.1896 100.031 86.6701 101.147 86.4181 102.335C86.1661 103.523 86.1883 104.753 86.4829 105.932L90 120ZM93 87C96.3137 87 99 84.3137 99 81C99 77.6863 96.3137 75 93 75C89.6863 75 87 77.6863 87 81C87 84.3137 89.6863 87 93 87ZM45 141C48.3137 141 51 138.314 51 135C51 131.686 48.3137 129 45 129C41.6863 129 39 131.686 39 135C39 138.314 41.6863 141 45 141ZM102 141C105.314 141 108 138.314 108 135C108 131.686 105.314 129 102 129C98.6863 129 96 131.686 96 135C96 138.314 98.6863 141 102 141ZM129 24C129 27.3137 126.314 30 123 30C119.686 30 117 27.3137 117 24C117 20.6863 119.686 18 123 18C126.314 18 129 20.6863 129 24ZM147 30C150.314 30 153 27.3137 153 24C153 20.6863 150.314 18 147 18C143.686 18 141 20.6863 141 24C141 27.3137 143.686 30 147 30ZM177 24C177 27.3137 174.314 30 171 30C167.686 30 165 27.3137 165 24C165 20.6863 167.686 18 171 18C174.314 18 177 20.6863 177 24ZM185.25 171H159.375C157.75 171.002 156.186 171.624 155.004 172.739C153.821 173.854 153.108 175.378 153.011 177H140.989C140.924 175.918 140.584 174.871 140.002 173.957C139.42 173.044 138.615 172.293 137.663 171.776L119.997 68.724C119.86 63.4125 115.771 60 109.5 60H10.5C4.12162 60 0 63.5325 0 69V69.2467L18 177.997V185.25C18.002 187.04 18.7138 188.755 19.9792 190.021C21.2447 191.286 22.9604 191.998 24.75 192H185.25C187.04 191.998 188.755 191.286 190.021 190.021C191.286 188.755 191.998 187.04 192 185.25V177.75C191.998 175.96 191.286 174.245 190.021 172.979C188.755 171.714 187.04 171.002 185.25 171ZM41.3932 159.204C41.2092 158.468 41.1954 157.699 41.3529 156.957C41.5103 156.215 41.8348 155.518 42.3018 154.92C42.7688 154.322 43.366 153.838 44.0479 153.506C44.7299 153.173 45.4787 153 46.2375 153H53.7593C54.873 152.999 55.9551 153.371 56.8329 154.056C57.7108 154.742 58.334 155.701 58.6031 156.782L62.1577 171H44.3423L41.3932 159.204ZM68.3423 171L64.425 155.327C63.8329 152.947 62.4608 150.834 60.5276 149.325C58.5944 147.815 56.2115 146.997 53.7589 147H46.2375C44.5669 147 42.9183 147.381 41.4168 148.113C39.9154 148.846 38.6007 149.911 37.5726 151.228C36.5445 152.545 35.83 154.078 35.4834 155.713C35.1368 157.347 35.1673 159.039 35.5725 160.659L38.1577 171H24.75C24.1465 171.002 23.5459 171.085 22.9646 171.247L14.9786 123H71.2984L80.3794 171H68.3423ZM32.3932 105.204C32.2092 104.468 32.1954 103.699 32.3529 102.957C32.5103 102.215 32.8348 101.518 33.3018 100.92C33.7688 100.322 34.366 99.8383 35.0479 99.5056C35.7299 99.1729 36.4787 99 37.2375 99H44.7593C45.873 98.9991 46.9551 99.371 47.8329 100.056C48.7108 100.742 49.334 101.701 49.6031 102.782L53.1577 117H35.3423L32.3932 105.204ZM89.3932 105.204C89.2092 104.468 89.1954 103.699 89.3529 102.957C89.5103 102.215 89.8348 101.518 90.3018 100.92C90.7688 100.322 91.366 99.8383 92.0479 99.5056C92.7299 99.1729 93.4787 99 94.2375 99H101.759C102.873 98.9991 103.955 99.371 104.833 100.056C105.711 100.742 106.334 101.701 106.603 102.782L110.158 117H92.3423L89.3932 105.204ZM114 69V69.2554L122.185 117H116.342L112.425 101.327C111.833 98.9472 110.461 96.834 108.528 95.3247C106.594 93.8154 104.211 92.997 101.759 93H94.2375C92.5669 93 90.9183 93.3807 89.4168 94.1133C87.9154 94.8459 86.6007 95.911 85.5726 97.2278C84.5445 98.5446 83.83 100.078 83.4834 101.713C83.1368 103.347 83.1673 105.039 83.5725 106.659L86.1577 117H76.2694L66.6206 66H109.5C112.486 66 114 67.0091 114 69ZM24 185.25V177.75C24 177.551 24.079 177.36 24.2197 177.22C24.3603 177.079 24.5511 177 24.75 177H99V186H24.75C24.5511 186 24.3603 185.921 24.2197 185.78C24.079 185.64 24 185.449 24 185.25ZM186 185.25C186 185.449 185.921 185.64 185.78 185.78C185.64 185.921 185.449 186 185.25 186H105V177H134.625C134.724 177 134.82 177.04 134.89 177.11C134.96 177.18 135 177.276 135 177.375C135.002 178.866 135.595 180.296 136.649 181.351C137.704 182.405 139.134 182.998 140.625 183H153.375C154.866 182.998 156.296 182.405 157.351 181.351C158.405 180.296 158.998 178.866 159 177.375C159 177.276 159.04 177.18 159.11 177.11C159.18 177.04 159.276 177 159.375 177H185.25C185.449 177 185.64 177.079 185.78 177.22C185.921 177.36 186 177.551 186 177.75V185.25ZM93 90C94.78 90 96.5201 89.4722 98.0001 88.4832C99.4802 87.4943 100.634 86.0887 101.315 84.4441C101.996 82.7996 102.174 80.99 101.827 79.2442C101.48 77.4984 100.623 75.8947 99.364 74.636C98.1053 73.3774 96.5016 72.5202 94.7558 72.1729C93.01 71.8257 91.2004 72.0039 89.5558 72.6851C87.9113 73.3663 86.5057 74.5198 85.5168 75.9999C84.5278 77.4799 84 79.22 84 81C84.0027 83.3861 84.9518 85.6738 86.639 87.361C88.3262 89.0482 90.6139 89.9973 93 90ZM93 78C93.5933 78 94.1734 78.1759 94.6667 78.5056C95.1601 78.8352 95.5446 79.3038 95.7716 79.8519C95.9987 80.4001 96.0581 81.0033 95.9424 81.5853C95.8266 82.1672 95.5409 82.7018 95.1213 83.1213C94.7018 83.5409 94.1672 83.8266 93.5853 83.9424C93.0033 84.0581 92.4001 83.9987 91.852 83.7716C91.3038 83.5446 90.8352 83.1601 90.5056 82.6667C90.1759 82.1734 90 81.5933 90 81C90.0009 80.2046 90.3173 79.4421 90.8797 78.8797C91.4421 78.3172 92.2046 78.0009 93 78ZM39.9999 127.517C41.4799 126.528 43.22 126 45 126C47.3861 126.003 49.6738 126.952 51.361 128.639C53.0483 130.326 53.9973 132.614 54 135C54 136.78 53.4722 138.52 52.4832 140C51.4943 141.48 50.0887 142.634 48.4442 143.315C46.7996 143.996 44.99 144.174 43.2442 143.827C41.4984 143.48 39.8947 142.623 38.636 141.364C37.3774 140.105 36.5202 138.502 36.1729 136.756C35.8257 135.01 36.0039 133.2 36.6851 131.556C37.3663 129.911 38.5198 128.506 39.9999 127.517ZM43.3333 137.494C43.8266 137.824 44.4067 138 45 138C45.7954 137.999 46.5579 137.683 47.1203 137.12C47.6828 136.558 47.9991 135.795 48 135C48 134.407 47.8241 133.827 47.4944 133.333C47.1648 132.84 46.6962 132.455 46.1481 132.228C45.5999 132.001 44.9967 131.942 44.4147 132.058C43.8328 132.173 43.2982 132.459 42.8787 132.879C42.4591 133.298 42.1734 133.833 42.0577 134.415C41.9419 134.997 42.0013 135.6 42.2284 136.148C42.4554 136.696 42.8399 137.165 43.3333 137.494ZM102 126C100.22 126 98.4799 126.528 96.9999 127.517C95.5198 128.506 94.3663 129.911 93.6851 131.556C93.0039 133.2 92.8257 135.01 93.1729 136.756C93.5202 138.502 94.3774 140.105 95.636 141.364C96.8947 142.623 98.4984 143.48 100.244 143.827C101.99 144.174 103.8 143.996 105.444 143.315C107.089 142.634 108.494 141.48 109.483 140C110.472 138.52 111 136.78 111 135C110.997 132.614 110.048 130.326 108.361 128.639C106.674 126.952 104.386 126.003 102 126ZM102 138C101.407 138 100.827 137.824 100.333 137.494C99.8399 137.165 99.4554 136.696 99.2284 136.148C99.0013 135.6 98.9419 134.997 99.0576 134.415C99.1734 133.833 99.4591 133.298 99.8787 132.879C100.298 132.459 100.833 132.173 101.415 132.058C101.997 131.942 102.6 132.001 103.148 132.228C103.696 132.455 104.165 132.84 104.494 133.333C104.824 133.827 105 134.407 105 135C104.999 135.795 104.683 136.558 104.12 137.12C103.558 137.683 102.795 137.999 102 138ZM118 16.5168C119.48 15.5278 121.22 15 123 15C125.386 15.0027 127.674 15.9518 129.361 17.639C131.048 19.3262 131.997 21.6139 132 24C132 25.78 131.472 27.5201 130.483 29.0001C129.494 30.4802 128.089 31.6337 126.444 32.3149C124.8 32.9961 122.99 33.1743 121.244 32.8271C119.498 32.4798 117.895 31.6226 116.636 30.364C115.377 29.1053 114.52 27.5016 114.173 25.7558C113.826 24.01 114.004 22.2004 114.685 20.5558C115.366 18.9113 116.52 17.5057 118 16.5168ZM121.333 26.4944C121.827 26.8241 122.407 27 123 27C123.795 26.9991 124.558 26.6827 125.12 26.1203C125.683 25.5579 125.999 24.7954 126 24C126 23.4067 125.824 22.8266 125.494 22.3333C125.165 21.8399 124.696 21.4554 124.148 21.2284C123.6 21.0013 122.997 20.9419 122.415 21.0576C121.833 21.1734 121.298 21.4591 120.879 21.8787C120.459 22.2982 120.173 22.8328 120.058 23.4147C119.942 23.9967 120.001 24.5999 120.228 25.148C120.455 25.6962 120.84 26.1648 121.333 26.4944ZM147 15C145.22 15 143.48 15.5278 142 16.5168C140.52 17.5057 139.366 18.9113 138.685 20.5558C138.004 22.2004 137.826 24.01 138.173 25.7558C138.52 27.5016 139.377 29.1053 140.636 30.364C141.895 31.6226 143.498 32.4798 145.244 32.8271C146.99 33.1743 148.8 32.9961 150.444 32.3149C152.089 31.6337 153.494 30.4802 154.483 29.0001C155.472 27.5201 156 25.78 156 24C155.997 21.6139 155.048 19.3262 153.361 17.639C151.674 15.9518 149.386 15.0027 147 15ZM147 27C146.407 27 145.827 26.8241 145.333 26.4944C144.84 26.1648 144.455 25.6962 144.228 25.148C144.001 24.5999 143.942 23.9967 144.058 23.4147C144.173 22.8328 144.459 22.2982 144.879 21.8787C145.298 21.4591 145.833 21.1734 146.415 21.0576C146.997 20.9419 147.6 21.0013 148.148 21.2284C148.696 21.4554 149.165 21.8399 149.494 22.3333C149.824 22.8266 150 23.4067 150 24C149.999 24.7954 149.683 25.5579 149.12 26.1203C148.558 26.6827 147.795 26.9991 147 27ZM166 16.5168C167.48 15.5278 169.22 15 171 15C173.386 15.0027 175.674 15.9518 177.361 17.639C179.048 19.3262 179.997 21.6139 180 24C180 25.78 179.472 27.5201 178.483 29.0001C177.494 30.4802 176.089 31.6337 174.444 32.3149C172.8 32.9961 170.99 33.1743 169.244 32.8271C167.498 32.4798 165.895 31.6226 164.636 30.364C163.377 29.1053 162.52 27.5016 162.173 25.7558C161.826 24.01 162.004 22.2004 162.685 20.5558C163.366 18.9113 164.52 17.5057 166 16.5168ZM169.333 26.4944C169.827 26.8241 170.407 27 171 27C171.795 26.9991 172.558 26.6827 173.12 26.1203C173.683 25.5579 173.999 24.7954 174 24C174 23.4067 173.824 22.8266 173.494 22.3333C173.165 21.8399 172.696 21.4554 172.148 21.2284C171.6 21.0013 170.997 20.9419 170.415 21.0576C169.833 21.1734 169.298 21.4591 168.879 21.8787C168.459 22.2982 168.173 22.8328 168.058 23.4147C167.942 23.9967 168.001 24.5999 168.228 25.148C168.455 25.6962 168.84 26.1648 169.333 26.4944Z" fill="url(#paint0_linear)"/>
<defs>
<linearGradient id="paint0_linear" x1="-53.7761" y1="96.0004" x2="251.175" y2="96.0004" gradientUnits="userSpaceOnUse">
<stop stop-color="#99E6FC"/>
<stop offset="0.5725" stop-color="#01D0FB"/>
<stop offset="1" stop-color="#4F66D0"/>
</linearGradient>
</defs>
</svg>
